<svg width="50" height="50" viewBox="0 0 50 50" fill="none" xmlns="http://www.w3.org/2000/svg">
<g clip-path="url(#clip0)">
<path d="M43.9818 23.9461C42.0856 20.5821 38.0339 19.0839 34.4052 20.405L30.3032 11.5177H34.145C34.681 11.5177 35.1155 11.9523 35.1155 12.4882C35.1155 13.0242 34.681 13.4587 34.145 13.4587H33.8215C33.4642 13.4587 33.1745 13.7484 33.1745 14.1057C33.1745 14.463 33.4642 14.7527 33.8215 14.7527H34.145C35.3957 14.7527 36.4096 13.7389 36.4096 12.4882C36.4096 11.2376 35.3957 10.2237 34.145 10.2237H29.2925C28.9352 10.2237 28.6455 10.5134 28.6455 10.8707C28.6455 10.9643 28.6658 11.0568 28.705 11.1418L30.3717 14.7527H20.1911L19.3015 12.8117H19.8573C20.7799 12.8136 21.5293 12.0671 21.5311 11.1445C21.5328 10.2902 20.8897 9.57227 20.0404 9.48031L16.4857 9.08434C15.4595 8.97249 14.5369 9.7138 14.4251 10.7401C14.3132 11.7663 15.0546 12.689 16.0809 12.8007C16.1474 12.808 16.2144 12.8117 16.2814 12.8117H17.8782L18.9697 15.1934L16.4884 20.4341C12.4761 18.9287 8.00302 20.9609 6.49761 24.9732C4.99219 28.9855 7.02443 33.4586 11.0367 34.964C15.0491 36.4694 19.5221 34.4372 21.0275 30.4249C21.279 29.7547 21.4364 29.0531 21.4956 28.3398H22.9144C23.264 29.7221 24.6679 30.5592 26.0501 30.2097C27.4323 29.8601 28.2694 28.4563 27.9199 27.074C27.7854 26.5422 27.485 26.0671 27.0623 25.7175L31.3015 16.7675L33.2295 20.9459C29.4319 23.0866 28.0886 27.9005 30.2293 31.6981C32.37 35.4958 37.1839 36.839 40.9815 34.6983C44.7792 32.5577 46.1224 27.7438 43.9818 23.9461ZM16.2813 11.5176C15.9635 11.5176 15.7058 11.2602 15.7054 10.9425C15.7058 10.6257 15.9619 10.3687 16.2787 10.3673C16.3007 10.3673 16.322 10.3673 16.3434 10.3705L19.898 10.7658C20.1049 10.7901 20.253 10.9776 20.2286 11.1844C20.2065 11.3732 20.0473 11.516 19.8573 11.5176H16.2813ZM17.101 22.1602C18.8457 23.2101 19.9943 25.02 20.2015 27.0457H14.7867L17.101 22.1602ZM13.7644 34.1628C10.1911 34.1745 7.28493 31.2873 7.27312 27.7141C7.26139 24.1408 10.1486 21.2346 13.7218 21.2228C14.4753 21.2203 15.2234 21.3494 15.9325 21.6044L13.1821 27.4158C13.0292 27.7388 13.167 28.1245 13.4899 28.2775C13.5757 28.3181 13.6695 28.3393 13.7644 28.3397H20.2015C19.8658 31.6439 17.0856 34.1589 13.7644 34.1628ZM22.9144 27.0457H21.4955C21.2818 24.5205 19.8491 22.2584 17.6574 20.9859L19.6735 16.7293L23.7839 25.6967C23.358 26.0425 23.0533 26.515 22.9144 27.0457ZM25.4105 28.9867C24.6958 28.9867 24.1165 28.4074 24.1165 27.6927C24.1165 26.978 24.6958 26.3987 25.4105 26.3987C26.1252 26.3987 26.7045 26.978 26.7045 27.6927C26.7045 28.4074 26.1252 28.9867 25.4105 28.9867ZM25.897 25.1545C25.7368 25.1224 25.5739 25.1058 25.4105 25.1047C25.2584 25.1069 25.107 25.1223 24.9576 25.1507L20.7844 16.0467H30.2113L25.897 25.1545ZM37.1103 34.2119C33.5234 34.2267 30.6037 31.331 30.5889 27.7442C30.5793 25.4396 31.7918 23.3026 33.775 22.1286L36.4691 27.9652C36.6122 28.2926 36.9936 28.442 37.3211 28.2989C37.6485 28.1557 37.7979 27.7743 37.6548 27.447C37.6514 27.4391 37.6478 27.4313 37.644 27.4237L34.9486 21.5839C35.6262 21.3467 36.3387 21.2246 37.0566 21.2229C40.6434 21.2081 43.5631 24.1037 43.5779 27.6906C43.5928 31.2773 40.6971 34.1971 37.1103 34.2119Z" fill="black" fill-opacity="0.6"/>
<path d="M37.0562 35.4568H13.764H6V36.7508H44.8202V35.4568H37.0562Z" fill="black" fill-opacity="0.6"/>
<path d="M15.0585 40.6328H7.29446C6.93716 40.6328 6.64746 40.9225 6.64746 41.2798C6.64746 41.6371 6.93716 41.9268 7.29446 41.9268H15.0585C15.4158 41.9268 15.7055 41.6371 15.7055 41.2798C15.7055 40.9225 15.4158 40.6328 15.0585 40.6328Z" fill="black" fill-opacity="0.6"/>
<path d="M29.9394 40.6328H20.8814C20.5241 40.6328 20.2344 40.9225 20.2344 41.2798C20.2344 41.6371 20.5241 41.9268 20.8814 41.9268H29.9394C30.2967 41.9268 30.5864 41.6371 30.5864 41.2798C30.5864 40.9225 30.2967 40.6328 29.9394 40.6328Z" fill="black" fill-opacity="0.6"/>
<path d="M43.5263 40.6328H35.7622C35.4049 40.6328 35.1152 40.9225 35.1152 41.2798C35.1152 41.6371 35.4049 41.9268 35.7622 41.9268H43.5263C43.8836 41.9268 44.1733 41.6371 44.1733 41.2798C44.1733 40.9225 43.8836 40.6328 43.5263 40.6328Z" fill="black" fill-opacity="0.6"/>
<path d="M13.764 31.5748C13.3884 31.5752 13.0146 31.5212 12.6544 31.4143C12.3126 31.31 11.9511 31.5025 11.8467 31.8442C11.7424 32.186 11.9349 32.5476 12.2767 32.6519C12.2796 32.6528 12.2826 32.6537 12.2857 32.6546C12.7655 32.7971 13.2636 32.8693 13.7641 32.8688C14.1214 32.8688 14.4111 32.5791 14.4111 32.2218C14.4111 31.8645 14.1213 31.5748 13.764 31.5748Z" fill="black" fill-opacity="0.6"/>
<path d="M11.0466 30.4658C10.2987 29.7374 9.87848 28.7367 9.88203 27.6927C9.88187 27.317 9.93614 26.9432 10.0431 26.5831C10.145 26.2404 9.94973 25.8801 9.60706 25.7782C9.26439 25.6764 8.90401 25.8716 8.80218 26.2143C8.25628 28.0546 8.77145 30.0459 10.1415 31.3904C10.2624 31.5085 10.4247 31.5748 10.5937 31.5748C10.951 31.5747 11.2407 31.285 11.2407 30.9277C11.2407 30.7539 11.1707 30.5875 11.0466 30.4658Z" fill="black" fill-opacity="0.6"/>
<path d="M39.2756 23.0175C38.8076 22.7947 38.3084 22.6442 37.7953 22.5711C37.4414 22.5207 37.1136 22.7668 37.0632 23.1207C37.0128 23.4746 37.2589 23.8024 37.6128 23.8528C37.9968 23.9071 38.3703 24.0195 38.7205 24.186C38.8071 24.2267 38.9017 24.2474 38.9974 24.2468C39.3547 24.2447 39.6427 23.9534 39.6406 23.596C39.6391 23.3494 39.4976 23.1251 39.2756 23.0175Z" fill="black" fill-opacity="0.6"/>
<path d="M41.3058 24.7346C41.0955 24.4458 40.6908 24.3822 40.4019 24.5925C40.1213 24.7968 40.052 25.1862 40.2447 25.4748C40.6983 26.1253 40.9405 26.8997 40.9383 27.6927C40.9385 28.0684 40.8844 28.4421 40.7779 28.8023C40.6762 29.1446 40.8711 29.5046 41.2133 29.6066C41.2731 29.6247 41.3352 29.6339 41.3977 29.6337C41.6839 29.6336 41.936 29.4455 42.0175 29.1711C42.467 27.661 42.2051 26.0284 41.3058 24.7346Z" fill="black" fill-opacity="0.6"/>
</g>
<defs>
<clipPath id="clip0">
<rect width="39" height="39" fill="white" transform="translate(6 6)"/>
</clipPath>
</defs>
</svg>
