<svg width="50" height="50" viewBox="0 0 50 50" fill="none" xmlns="http://www.w3.org/2000/svg">
<g clip-path="url(#clip0)">
<path d="M42.3404 10.8369H26.1068H26.0702C26.0336 10.8369 25.9969 10.8369 25.9236 10.8735C25.887 10.8735 25.8503 10.9102 25.8137 10.9102H25.777L7.34478 20.9875C7.01498 21.1707 6.90504 21.5738 7.08826 21.8669C7.1982 22.0868 7.45471 22.2334 7.67458 22.2334C7.78451 22.2334 7.89445 22.1967 8.00438 22.1601L10.2764 20.9142V38.5036C10.2764 38.8701 10.5695 39.1632 10.936 39.1632H26.1068H29.6247H34.242H42.3404C42.7069 39.1632 43 38.8701 43 38.5036V11.4965C43.0001 11.13 42.7069 10.8369 42.3404 10.8369ZM25.4472 37.8074H11.5589V26.704H25.4472V37.8074ZM25.4472 20.1446V25.3848H11.5589V20.1813L25.4472 12.5958V20.1446ZM26.7665 20.1446V12.1561H33.5824V25.4215H26.7665V20.1446ZM33.5825 37.8074H30.2844V31.1747H33.5825V37.8074ZM41.6808 37.8074H34.9016V30.5151C34.9016 30.1486 34.6084 29.8555 34.242 29.8555H29.6247C29.2583 29.8555 28.9651 30.1486 28.9651 30.5151V37.8074H26.7665V26.704H41.6808V37.8074ZM41.7176 25.3848H41.6809H34.9017V12.1561H41.7176V25.3848Z" fill="black" fill-opacity="0.6"/>
<path d="M23.0287 31.5411H14.0141C13.6477 31.5411 13.3545 31.8343 13.3545 32.2007C13.3545 32.5672 13.6477 32.8603 14.0141 32.8603H23.0287C23.3951 32.8603 23.6883 32.5672 23.6883 32.2007C23.6883 31.8343 23.3951 31.5411 23.0287 31.5411Z" fill="black" fill-opacity="0.6"/>
<path d="M23.0287 28.6462H14.0141C13.6477 28.6462 13.3545 28.9394 13.3545 29.3058C13.3545 29.6723 13.6477 29.9654 14.0141 29.9654H23.0287C23.3951 29.9654 23.6883 29.6723 23.6883 29.3058C23.6883 28.9394 23.3951 28.6462 23.0287 28.6462Z" fill="black" fill-opacity="0.6"/>
<path d="M23.0287 34.4727H14.0141C13.6477 34.4727 13.3545 34.7659 13.3545 35.1323C13.3545 35.4988 13.6477 35.7919 14.0141 35.7919H23.0287C23.3951 35.7919 23.6883 35.4988 23.6883 35.1323C23.6883 34.7659 23.3951 34.4727 23.0287 34.4727Z" fill="black" fill-opacity="0.6"/>
</g>
<defs>
<clipPath id="clip0">
<rect width="36" height="36" fill="white" transform="translate(7 7)"/>
</clipPath>
</defs>
</svg>
