<svg width="50" height="50" viewBox="0 0 50 50" fill="none" xmlns="http://www.w3.org/2000/svg">
<path d="M25.0002 8.96951C24.5892 8.96951 24.2588 9.30053 24.2588 9.71096C24.2588 10.093 24.5462 10.4108 24.926 10.4485C25.3658 10.4922 25.7417 10.1497 25.7417 9.71096C25.7417 9.29993 25.4107 8.96951 25.0002 8.96951Z" fill="black" fill-opacity="0.6"/>
<path d="M39.8438 10.4531C37.7975 10.4531 36.1328 8.7884 36.1328 6.74219C36.1328 6.33235 35.8005 6 35.3906 6H14.6094C14.1995 6 13.8672 6.33235 13.8672 6.74219C13.8672 8.7884 12.2025 10.4531 10.1562 10.4531C9.74641 10.4531 9.41406 10.7855 9.41406 11.1953V23.3071C9.41406 32.746 15.5664 41.2038 24.7868 43.9688C24.8564 43.9895 24.9282 44 25 44C25.0718 44 25.1438 43.9895 25.2132 43.9687C34.2339 41.2627 40.5859 32.9525 40.5859 23.3071V11.1953C40.5859 10.7855 40.2536 10.4531 39.8438 10.4531ZM39.1016 23.3071C39.1016 32.1724 33.4445 39.8498 25 42.4817C16.6228 39.8708 10.8984 32.1238 10.8984 23.3071V11.8847C13.1703 11.5582 14.9723 9.75629 15.2987 7.48438H34.7013C35.0277 9.75629 36.8297 11.5582 39.1016 11.8847V23.3071Z" fill="black" fill-opacity="0.6"/>
<path d="M37.1728 12.8645C35.625 12.1867 34.3993 10.9609 33.7214 9.41317C33.6031 9.14316 33.3364 8.96875 33.0416 8.96875H27.9673C27.5574 8.96875 27.2251 9.3011 27.2251 9.71094C27.2251 10.1208 27.5574 10.4531 27.9673 10.4531H32.5723C33.3564 11.988 34.5979 13.2294 36.1328 14.0136V23.3071C36.1328 30.5703 31.7725 36.8374 25 39.346C18.2275 36.8373 13.8672 30.5703 13.8672 23.3071V14.0136C15.4021 13.2294 16.6435 11.988 17.4277 10.4531H22.0327C22.4426 10.4531 22.7749 10.1208 22.7749 9.71094C22.7749 9.3011 22.4426 8.96875 22.0327 8.96875H16.9584C16.6636 8.96875 16.3969 9.14324 16.2786 9.41317C15.6007 10.9609 14.375 12.1867 12.8272 12.8645C12.5573 12.9828 12.3828 13.2496 12.3828 13.5443V23.3071C12.3828 31.2643 17.3043 38.1993 24.7524 40.835C24.8325 40.8634 24.9162 40.8775 25 40.8775C25.0838 40.8775 25.1675 40.8634 25.2476 40.835C32.6894 38.2015 37.6172 31.2707 37.6172 23.3071V13.5443C37.6172 13.2495 37.4427 12.9828 37.1728 12.8645Z" fill="black" fill-opacity="0.6"/>
<path d="M25 16.8359C21.3168 16.8359 18.3203 19.8324 18.3203 23.5156C18.3203 27.1988 21.3168 30.1953 25 30.1953C28.6832 30.1953 31.6797 27.1988 31.6797 23.5156C31.6797 19.8324 28.6832 16.8359 25 16.8359ZM25 28.7109C22.1353 28.7109 19.8047 26.3803 19.8047 23.5156C19.8047 20.6509 22.1353 18.3203 25 18.3203C27.8647 18.3203 30.1953 20.6509 30.1953 23.5156C30.1953 26.3803 27.8647 28.7109 25 28.7109Z" fill="black" fill-opacity="0.6"/>
<path d="M28.4936 21.5064C28.2037 21.2166 27.7339 21.2166 27.4439 21.5064L24.2579 24.6925L23.2983 23.733C23.0084 23.4433 22.5386 23.4433 22.2486 23.733C21.9588 24.0228 21.9588 24.4928 22.2486 24.7827L23.733 26.2671C23.878 26.4119 24.0679 26.4844 24.2579 26.4844C24.4479 26.4844 24.6377 26.4119 24.7827 26.267L28.4936 22.5561C28.7834 22.2662 28.7834 21.7963 28.4936 21.5064Z" fill="black" fill-opacity="0.6"/>
</svg>
