<svg width="50" height="50" viewBox="0 0 50 50" fill="none" xmlns="http://www.w3.org/2000/svg">
<g clip-path="url(#clip0)">
<path d="M24.8666 44.1176C23.4732 44.1176 22.0805 43.8368 20.7908 43.2759L14.6237 40.595C12.3926 39.6245 10.0336 39.0098 7.61228 38.7678L5.58705 38.5653C5.25362 38.5321 5 38.2516 5 37.9167V31.5639C5 31.4229 5.04588 31.2856 5.13054 31.173C5.28196 30.9705 8.9117 26.2286 14.4563 27.4623C17.5747 28.1553 20.0855 29.4521 21.6426 30.4181C22.7731 31.1193 24.0983 31.4897 25.4749 31.4897H31.642C32.7049 31.4897 33.6392 32.0521 34.1617 32.8957L39.4732 26.7764C40.503 25.4013 42.1877 24.5591 43.9514 24.5591H44.3483C44.5687 24.5591 44.7738 24.6703 44.8939 24.8545C45.0144 25.0388 45.0334 25.2719 44.945 25.4733L40.1412 36.3908C39.0909 38.7786 36.9523 40.5823 34.4209 41.2152L33.5758 41.4263L28.6593 43.393C27.4494 43.8767 26.1578 44.1176 24.8666 44.1176ZM6.3039 37.3266L7.74207 37.4706C10.298 37.7261 12.7883 38.3754 15.144 39.3996L21.3107 42.0805C23.4791 43.0234 25.9799 43.0603 28.1756 42.1819L33.1323 40.1992C33.1599 40.1884 33.1879 40.1795 33.2166 40.1724L34.1047 39.9501C36.2481 39.4141 38.0589 37.8872 38.9477 35.8657L43.3293 25.9078C42.2074 26.073 41.175 26.6776 40.4873 27.5944L34.6033 34.3757C34.6041 34.4011 34.6044 34.426 34.6044 34.4518C34.6044 36.085 33.2756 37.4139 31.6423 37.4139H23.0379C21.9194 37.4139 20.8139 37.5933 19.7528 37.9469L19.5134 37.3389L19.3108 36.7194L19.344 36.7086C20.5349 36.3118 21.7788 36.11 23.0379 36.11H31.6423C32.5565 36.11 33.3009 35.3659 33.3009 34.4514C33.3009 33.5369 32.5568 32.7928 31.6423 32.7928H25.4753C23.8555 32.7928 22.2927 32.3546 20.956 31.5255C19.485 30.6128 17.1137 29.3883 14.1743 28.7345C9.97541 27.8032 6.95399 31.0257 6.30427 31.7944V37.3266H6.3039Z" fill="black" fill-opacity="0.6"/>
<path d="M30.6713 24.4118C29.6687 24.4118 28.5446 24.1023 27.3071 23.4835C27.1572 23.4082 27.0416 23.2776 26.9849 23.1199C26.9345 22.9785 25.7697 19.6281 27.6208 17.1505C28.9661 15.3494 31.4956 14.5382 35.1432 14.7415C35.4759 14.7598 35.7411 15.0264 35.7575 15.3599C35.7705 15.6187 36.0394 21.7283 32.924 23.7625C32.2616 24.1955 31.509 24.4118 30.6713 24.4118ZM28.1385 22.4373C29.8508 23.2403 31.2196 23.319 32.2117 22.6712C34.059 21.4646 34.4584 17.883 34.4681 16.0189C31.6101 15.9492 29.6643 16.5933 28.6651 17.9304C27.4761 19.5226 27.9382 21.7126 28.1385 22.4373Z" fill="black" fill-opacity="0.6"/>
<path d="M20.7029 15.8712C19.547 15.8712 18.2137 15.6236 17.05 14.7713C15.0762 13.325 14.1692 10.5713 14.3534 6.58726C14.3691 6.25419 14.6332 5.9864 14.9662 5.96663C15.2482 5.9506 21.9221 5.59441 24.1677 8.96531C25.2135 10.5344 25.1278 12.5895 23.9137 15.0746C23.8399 15.2256 23.7109 15.3423 23.5531 15.4002C23.4654 15.4326 22.2417 15.8712 20.7029 15.8712ZM23.3282 14.7885H23.3345H23.3282ZM15.6364 7.24928C15.5801 10.4404 16.3138 12.6156 17.8202 13.7196C19.6239 15.041 22.0866 14.4793 22.8609 14.2536C23.7467 12.3314 23.8216 10.7966 23.0831 9.68812C21.7106 7.62784 17.6855 7.22503 15.6364 7.24928Z" fill="black" fill-opacity="0.6"/>
<path d="M25.7929 32.5638C25.7724 32.5638 25.7519 32.5627 25.731 32.5608C25.3838 32.528 25.1238 32.2278 25.1413 31.879C25.1797 31.1122 25.2454 30.3849 25.3345 29.6957C25.6057 25.0828 25.4658 14.3405 18.674 11.3687C18.3443 11.2244 18.1937 10.8402 18.338 10.5101C18.482 10.1808 18.8672 10.0305 19.1966 10.1745C23.1989 11.9255 25.7168 16.2852 26.4766 22.7819C26.5448 23.3641 26.5959 23.9381 26.634 24.4972C28.4227 19.9772 31.1592 18.3802 31.3222 18.2888C31.6355 18.1116 32.0331 18.2243 32.2098 18.5372C32.3855 18.8505 32.2751 19.2469 31.9629 19.4237C31.8939 19.464 27.6977 21.9823 26.6444 29.7483C26.5642 31.0768 26.4486 31.9238 26.4378 32.0014C26.3926 32.3266 26.1148 32.5638 25.7929 32.5638Z" fill="black" fill-opacity="0.6"/>
</g>
<defs>
<clipPath id="clip0">
<rect width="40" height="40" fill="white" transform="translate(5 5)"/>
</clipPath>
</defs>
</svg>
