<svg width="50" height="50" viewBox="0 0 50 50" fill="none" xmlns="http://www.w3.org/2000/svg">
<path d="M43.222 11.4609C42.6938 9.79973 41.9779 8.61029 41.9475 8.5603C41.8302 8.36682 41.5885 8.26618 41.3696 8.31639C41.3129 8.32933 39.961 8.64488 38.4015 9.42371C36.2962 10.4748 34.8256 11.878 34.1481 13.481C33.5842 14.8159 33.5032 16.4479 33.9033 18.2508C33.0511 17.299 32.0924 16.4664 31.0473 15.7655C30.7282 15.135 29.8844 13.583 28.5653 11.9608C28.1308 11.4268 27.2951 12.0969 27.734 12.6363C28.6229 13.7296 29.2919 14.8048 29.7104 15.5434L24.8314 14.5923L20.1959 8.26953C20.646 8.27577 21.0977 8.31929 21.5472 8.40744C22.972 8.68639 24.3795 9.4121 25.7312 10.5641C26.2607 11.0155 26.9485 10.1938 26.4259 9.74863C24.9327 8.47617 23.3606 7.67101 21.7529 7.35613C19.2988 6.87589 16.4366 7.50632 13.4748 9.18002C11.2673 10.4275 9.7911 11.7977 9.72951 11.8553C9.53201 12.0398 9.50055 12.375 9.66591 12.5906C9.88237 13.0347 10.7027 14.6367 12.0682 16.3615C12.8732 17.3785 13.7221 18.2488 14.6002 18.964C14.3507 19.1731 14.1079 19.3918 13.8729 19.6219C12.6179 20.8495 11.6569 22.2976 11.0261 23.8807C10.4684 25.2794 10.1685 26.7842 10.1517 28.3352C10.1241 30.8714 10.8589 33.3174 12.2773 35.4093C13.6629 37.4526 15.6 39.0214 17.8789 39.9459C18.5167 40.2041 18.9199 39.2122 18.2817 38.9533C17.456 38.6184 16.6803 38.1892 15.9648 37.6789C16.0563 37.1714 16.2685 35.3451 15.0554 33.4544C14.8856 33.19 15.3933 32.1514 15.6964 31.531C16.0092 30.8917 16.3321 30.2307 16.483 29.6083C16.6432 28.9471 16.4629 28.3921 15.9619 28.0027C15.5941 27.7168 15.1128 27.5688 14.6886 27.4383C14.413 27.3535 14.1005 27.2575 13.989 27.1645C13.7591 26.9719 13.3838 26.2602 13.082 25.6887C12.7473 25.0547 12.4286 24.4513 12.1033 24.0797C12.8354 22.3409 14.0115 20.8022 15.4844 19.625C16.8298 20.5415 18.3653 21.174 19.9975 21.3021C18.1047 22.7687 17.4923 24.6416 18.3676 26.4408C19.3897 28.5416 21.4934 28.206 23.3494 27.9103C23.6705 27.8589 24.0028 27.8061 24.321 27.7663C24.4404 27.7514 24.4764 27.784 24.5005 27.8052C24.9068 28.1667 24.8948 29.8933 24.8861 31.1541C24.8743 32.8981 24.8631 34.5455 25.5127 35.3913C25.8441 35.8224 26.3107 36.0429 26.8577 36.0429C27.1855 36.0429 27.5417 35.9639 27.9153 35.8037C29.5307 35.1119 31.21 33.0298 30.9538 31.3824C30.73 29.9421 30.5818 28.9906 30.931 28.2236C31.2539 27.5137 32.0346 26.8565 33.5719 26.0179C33.756 26.8469 33.8489 27.7094 33.8393 28.5943C33.8064 31.6145 32.5992 34.4413 30.4401 36.5535C28.0271 38.9141 24.6357 40.0798 21.2809 39.7101C20.5974 39.636 20.4793 40.6996 21.1638 40.775C24.8359 41.1793 28.5486 39.9029 31.189 37.3194C33.5529 35.0067 34.8745 31.9124 34.9104 28.6056C34.9582 24.2212 32.7085 20.3369 29.2839 18.0993C29.9915 17.5947 30.5186 17.1584 30.811 16.9051C32.0596 17.8009 33.1671 18.9044 34.0885 20.1901C36.3005 23.277 37.1777 27.0402 36.5591 30.787C35.2815 38.5215 27.9501 43.7754 20.2142 42.4973C16.4672 41.8785 13.1856 39.8379 10.9736 36.751C8.76144 33.6642 7.8842 29.9006 8.50302 26.154C8.61415 25.4798 7.55794 25.3029 7.44636 25.9795C6.78067 30.0086 7.72442 34.0556 10.1026 37.3751C12.4813 40.6942 16.0106 42.8888 20.0397 43.5544C20.8824 43.6935 21.7259 43.7622 22.5637 43.7622C25.7303 43.7622 28.8108 42.779 31.4358 40.8979C34.7558 38.5193 36.9506 34.9907 37.6158 30.9615C38.1034 28.0091 37.726 25.0471 36.554 22.3688C37.0949 22.2092 38.0155 21.8995 39.0237 21.396C41.1286 20.3449 42.5994 18.9417 43.2767 17.3387C43.9546 15.7353 43.9357 13.7028 43.222 11.4609V11.4609ZM12.1345 26.1886C12.5331 26.9442 12.91 27.6583 13.3016 27.9859C13.579 28.2178 13.9651 28.3365 14.3737 28.4621C15.4205 28.7839 15.5422 28.9419 15.4417 29.3559C15.3185 29.8649 15.0213 30.4728 14.7341 31.0604C14.1809 32.1923 13.6585 33.2607 14.1537 34.0329C14.8559 35.1273 14.9762 36.2047 14.9642 36.8748C11.7739 33.9981 10.4749 29.4543 11.6632 25.3245C11.8207 25.5945 11.9863 25.9083 12.1345 26.1886V26.1886ZM38.0489 15.6628L36.5268 11.974C37.2674 11.2813 38.1268 10.76 38.8588 10.3929C39.4823 10.08 40.0755 9.84615 40.5512 9.68034L38.0489 15.6628ZM41.5387 10.0956C41.7514 10.5527 41.998 11.142 42.2086 11.8082C42.4396 12.5392 42.6516 13.4453 42.6938 14.3904L39.1266 15.8621L41.5387 10.0956ZM35.1347 13.8981C35.2927 13.5245 35.4969 13.1781 35.7328 12.8584L37.4656 17.0571L35.9106 20.7754C35.6922 20.3119 35.4348 19.7031 35.2166 19.0115C34.7785 17.6268 34.409 15.6153 35.1347 13.8981ZM38.5662 20.4268C37.9662 20.7281 37.3935 20.9562 36.9271 21.1206L38.5408 17.2629L42.6483 15.568C42.5887 16.0281 42.4751 16.4843 42.2901 16.9217C41.5646 18.6389 39.8646 19.7759 38.5662 20.4268ZM19.2524 20.122C19.0632 20.0849 18.8764 20.0396 18.6923 19.9881L24.6203 15.6427L29.5015 16.5941C27.7233 17.9951 23.396 20.9338 19.2524 20.122V20.122ZM13.8348 16.7708C12.567 15.4044 11.6377 13.9434 11.1042 13.0079L17.3158 14.219L13.8348 16.7708ZM14.9318 9.62455L17.5307 13.1694L11.2789 11.9508C12.066 11.3293 13.3652 10.3962 14.9318 9.62455ZM19.0804 13.4716L15.9296 9.17377C16.8729 8.78614 17.8853 8.48108 18.9232 8.3454L23.282 14.2904L19.0804 13.4716ZM18.747 14.4979L23.1894 15.3638L17.4879 19.5429C16.4127 19.0464 15.4451 18.3325 14.5984 17.5389L18.747 14.4979ZM33.2809 24.9574C31.3499 25.9862 30.4044 26.7942 29.9558 27.7799C29.474 28.8384 29.6505 29.9745 29.8949 31.5469C30.0393 32.4741 28.9373 34.2007 27.4935 34.8191C26.9592 35.0478 26.5787 35.0208 26.3621 34.7385C25.9365 34.1846 25.9481 32.5083 25.9572 31.1615C25.97 29.2981 25.9811 27.6889 25.2123 27.0049C24.9358 26.759 24.5821 26.655 24.1892 26.7032C23.8524 26.7451 23.5107 26.7996 23.1807 26.8523C21.2118 27.166 19.9728 27.2917 19.331 25.9721C18.291 23.8349 20.3961 22.2518 21.3494 21.6705C21.5436 21.5522 21.7237 21.4127 21.8911 21.2574C24.1952 20.982 26.3723 19.9934 28.3125 18.7551C30.6387 20.145 32.4244 22.3444 33.2809 24.9574V24.9574Z" fill="black" fill-opacity="0.6"/>
</svg>
