<svg width="50" height="50" viewBox="0 0 50 50" fill="none" xmlns="http://www.w3.org/2000/svg">
<path d="M46.7465 36.7522L46.0183 33.7582C46.0144 33.7423 46.01 33.7265 46.0052 33.711C45.7028 32.7316 45.2004 31.8256 44.5298 31.0503C43.8592 30.275 43.035 29.6474 42.1094 29.2071V21.3822C43.6544 21.1867 45.0669 20.4099 46.0593 19.2097C47.0517 18.0095 47.5495 16.4763 47.4512 14.922C47.353 13.3678 46.6661 11.9094 45.5305 10.8437C44.3948 9.77808 42.8958 9.18525 41.3384 9.18593C39.7811 9.18661 38.2825 9.78075 37.1478 10.8474C36.0131 11.9141 35.3275 13.373 35.2306 14.9274C35.1337 16.4817 35.6328 18.0145 36.6263 19.2138C37.6198 20.4131 39.0329 21.1888 40.5781 21.3828V28.6395C39.7903 28.4309 38.9785 28.3262 38.1635 28.3281H38.0261L35.5901 22.4816C34.7444 20.4518 32.69 19.1406 30.3564 19.1406H17.6122C14.5324 19.1406 11.7033 20.8189 10.4047 23.4163L7.85053 28.5245C4.89139 29.1775 2.72285 31.4138 2.34425 34.4063L1.97742 36.8205C1.84433 36.8815 1.73154 36.9795 1.65246 37.1027C1.57337 37.2259 1.5313 37.3692 1.53125 37.5156V40.5781C1.53125 40.7812 1.61191 40.9759 1.7555 41.1195C1.89908 41.2631 2.09382 41.3437 2.29688 41.3437H8.2743C8.67692 42.042 9.25634 42.6219 9.95426 43.0251C10.6522 43.4283 11.444 43.6406 12.25 43.6406C13.056 43.6406 13.8478 43.4283 14.5457 43.0251C15.2437 42.6219 15.8231 42.042 16.2257 41.3437H31.243C31.6456 42.042 32.225 42.6219 32.923 43.0251C33.6209 43.4283 34.4127 43.6406 35.2188 43.6406C36.0248 43.6406 36.8166 43.4283 37.5145 43.0251C38.2125 42.6219 38.7919 42.042 39.1945 41.3437H46.7031C46.9062 41.3437 47.1009 41.2631 47.2445 41.1195C47.3881 40.9759 47.4688 40.7812 47.4688 40.5781V37.5156C47.4686 37.3202 47.3937 37.1322 47.2594 36.9903C47.1251 36.8483 46.9416 36.7631 46.7465 36.7522V36.7522ZM45.1701 36.75H42.875V35.2187H44.7976L45.1701 36.75ZM36.75 15.3098C36.75 14.4018 37.0192 13.5141 37.5237 12.7591C38.0282 12.0041 38.7452 11.4157 39.5841 11.0681C40.423 10.7206 41.3461 10.6297 42.2367 10.8069C43.1273 10.984 43.9453 11.4212 44.5874 12.0633C45.2295 12.7054 45.6668 13.5234 45.8439 14.414C46.0211 15.3046 45.9302 16.2277 45.5827 17.0666C45.2352 17.9055 44.6467 18.6226 43.8917 19.127C43.1367 19.6315 42.2491 19.9008 41.3411 19.9008C40.1239 19.8994 38.9569 19.4153 38.0962 18.5546C37.2355 17.6939 36.7514 16.527 36.75 15.3098ZM23.7344 20.6719H30.3564C32.0435 20.6719 33.5787 21.6358 34.1765 23.0706L36.3672 28.3281H23.7344V20.6719ZM11.7742 24.1011C12.8158 22.0178 15.1073 20.6719 17.6121 20.6719H22.2031V28.3281H9.67367C9.66927 28.3281 9.66496 28.3281 9.66056 28.3281L11.7742 24.1011ZM7.72123 39.8125H3.0625V38.2812H7.72123C7.63459 38.788 7.63459 39.3058 7.72123 39.8125V39.8125ZM12.25 42.1094C11.6443 42.1094 11.0522 41.9298 10.5486 41.5932C10.0449 41.2567 9.65241 40.7784 9.42062 40.2188C9.18883 39.6592 9.12818 39.0435 9.24634 38.4494C9.36451 37.8553 9.65619 37.3097 10.0845 36.8814C10.5128 36.4531 11.0585 36.1614 11.6525 36.0432C12.2466 35.925 12.8624 35.9857 13.422 36.2175C13.9816 36.4493 14.4599 36.8418 14.7964 37.3454C15.1329 37.8491 15.3125 38.4412 15.3125 39.0469C15.3116 39.8588 14.9886 40.6372 14.4145 41.2114C13.8404 41.7855 13.0619 42.1085 12.25 42.1094ZM30.69 39.8125H16.7788C16.8654 39.3058 16.8654 38.788 16.7788 38.2812H30.69C30.6033 38.788 30.6033 39.3058 30.69 39.8125V39.8125ZM35.2188 42.1094C34.613 42.1094 34.0209 41.9298 33.5173 41.5932C33.0137 41.2567 32.6212 40.7784 32.3894 40.2188C32.1576 39.6592 32.0969 39.0435 32.2151 38.4494C32.3333 37.8553 32.6249 37.3097 33.0532 36.8814C33.4815 36.4531 34.0272 36.1614 34.6213 36.0432C35.2154 35.925 35.8311 35.9857 36.3907 36.2175C36.9503 36.4493 37.4286 36.8418 37.7651 37.3454C38.1016 37.8491 38.2812 38.4412 38.2812 39.0469C38.2803 39.8588 37.9574 40.6372 37.3833 41.2114C36.8091 41.7855 36.0307 42.1085 35.2188 42.1094ZM35.2188 34.4531C34.4128 34.4537 33.6213 34.6663 32.9234 35.0694C32.2256 35.4726 31.6461 36.0521 31.243 36.75H16.2257C15.8231 36.0517 15.2437 35.4718 14.5457 35.0686C13.8478 34.6654 13.056 34.4531 12.25 34.4531C11.444 34.4531 10.6522 34.6654 9.95426 35.0686C9.25634 35.4718 8.67692 36.0517 8.2743 36.75H3.537L3.85971 34.6265C3.86076 34.6198 3.86162 34.6132 3.86248 34.6065C4.21189 31.8117 6.60151 29.8594 9.67367 29.8594H38.1635C39.1532 29.8519 40.1348 30.0385 41.0527 30.4086C42.6031 31.0459 43.7641 32.2003 44.369 33.6875H42.1094C41.9063 33.6875 41.7116 33.7682 41.568 33.9117C41.4244 34.0553 41.3438 34.2501 41.3438 34.4531V36.75H39.1945C38.7914 36.0521 38.2119 35.4726 37.5141 35.0694C36.8162 34.6663 36.0247 34.4537 35.2188 34.4531ZM45.9375 39.8125H39.7475C39.8342 39.3058 39.8342 38.788 39.7475 38.2812H45.9375V39.8125Z" fill="black" fill-opacity="0.6"/>
<path d="M2.29688 43.6406C2.09382 43.6406 1.89908 43.7213 1.7555 43.8649C1.61191 44.0085 1.53125 44.2032 1.53125 44.4062C1.53125 44.6093 1.61191 44.804 1.7555 44.9476C1.89908 45.0912 2.09382 45.1719 2.29688 45.1719H46.7031C46.9062 45.1719 47.1009 45.0912 47.2445 44.9476C47.3881 44.804 47.4688 44.6093 47.4688 44.4062C47.4688 44.2032 47.3881 44.0085 47.2445 43.8649C47.1009 43.7213 46.9062 43.6406 46.7031 43.6406H2.29688Z" fill="black" fill-opacity="0.6"/>
<path d="M44.4009 15.3098C44.4009 14.7046 44.2215 14.113 43.8853 13.6098C43.5491 13.1066 43.0712 12.7144 42.5121 12.4828C41.9529 12.2512 41.3377 12.1906 40.7442 12.3087C40.1506 12.4267 39.6054 12.7182 39.1775 13.1461C38.7495 13.574 38.4581 14.1192 38.34 14.7128C38.222 15.3064 38.2826 15.9216 38.5142 16.4807C38.7458 17.0398 39.138 17.5177 39.6412 17.8539C40.1444 18.1901 40.736 18.3696 41.3412 18.3695C42.1524 18.3686 42.9301 18.0459 43.5037 17.4723C44.0773 16.8987 44.4 16.121 44.4009 15.3098V15.3098ZM39.8126 15.3098C39.8126 15.0075 39.9022 14.7119 40.0702 14.4606C40.2381 14.2092 40.4768 14.0132 40.7561 13.8975C41.0355 13.7818 41.3428 13.7515 41.6393 13.8105C41.9358 13.8695 42.2082 14.0151 42.422 14.2288C42.6358 14.4426 42.7814 14.715 42.8404 15.0115C42.8994 15.308 42.8691 15.6153 42.7534 15.8947C42.6377 16.174 42.4418 16.4127 42.1904 16.5807C41.939 16.7486 41.6435 16.8383 41.3412 16.8383C40.9359 16.8378 40.5474 16.6767 40.2608 16.3901C39.9743 16.1036 39.8131 15.7151 39.8126 15.3098V15.3098Z" fill="black" fill-opacity="0.6"/>
<path d="M26.0312 31.3906H24.5C24.2969 31.3906 24.1022 31.4713 23.9586 31.6149C23.815 31.7585 23.7344 31.9532 23.7344 32.1562C23.7344 32.3593 23.815 32.554 23.9586 32.6976C24.1022 32.8412 24.2969 32.9219 24.5 32.9219H26.0312C26.2343 32.9219 26.429 32.8412 26.5726 32.6976C26.7162 32.554 26.7969 32.3593 26.7969 32.1562C26.7969 31.9532 26.7162 31.7585 26.5726 31.6149C26.429 31.4713 26.2343 31.3906 26.0312 31.3906Z" fill="black" fill-opacity="0.6"/>
</svg>
